# xmcd
#
# Track frame offsets:
# 150
# 11920
# 21960
# 33981
# 46076
# 56131
# 67436
# 76996
# 86108
# 95941
# 101749
# 108579
# 116435
# 125539
#
# Disc length: 1786 seconds
#
#
# Revision: 0
# Processed by: cddbd v1.4PL0 Copyright (c) Steve Scherf et al.
# Submitted via: FreeRIP 2.35 
#
DISCID=c806f80e
DTITLE=Johnny Cash - From the Vaults, Volume 4
DYEAR=2003
DGENRE=Country
TTITLE0=Big River
TTITLE1=Ballad Of A Teenage Queen
TTITLE2=Wide Open Road
TTITLE3=Thanks A Lot
TTITLE4=Born To Lose
TTITLE5=Mean Eyed Cat
TTITLE6=New Mexico
TTITLE7=Remember Me
TTITLE8=Just About Time
TTITLE9=My Treasure
TTITLE10=You're My Baby
TTITLE11=If The Good Lord's Willing
TTITLE12=Life Goes On
TTITLE13=Country Boy
EXTD=
EXTT0=
EXTT1=
EXTT2=
EXTT3=
EXTT4=
EXTT5=
EXTT6=
EXTT7=
EXTT8=
EXTT9=
EXTT10=
EXTT11=
EXTT12=
EXTT13=
PLAYORDER=
